<svg xmlns="http://www.w3.org/2000/svg" xmlns:xlink="http://www.w3.org/1999/xlink" width="500" zoomAndPan="magnify" viewBox="0 0 375 374.999991" height="500" preserveAspectRatio="xMidYMid meet" version="1.0"><defs><g/><clipPath id="c511998596"><path d="M 169.699219 139.503906 L 285 139.503906 L 285 161 L 169.699219 161 Z M 169.699219 139.503906 " clip-rule="nonzero"/></clipPath><clipPath id="035c757592"><path d="M 220 153 L 355.699219 153 L 355.699219 166.503906 L 220 166.503906 Z M 220 153 " clip-rule="nonzero"/></clipPath><clipPath id="c1dbc9ffdd"><rect x="0" width="64" y="0" height="42"/></clipPath></defs><g clip-path="url(#c511998596)"><path fill="#000000" d="M 276.058594 151.984375 L 284.902344 151.488281 C 279.492188 148.824219 274.839844 146.832031 271.351562 145.425781 C 264.28125 142.574219 260.648438 141.132812 255.78125 140.324219 C 253.832031 140 250.09375 139.503906 241.96875 140.058594 C 234.011719 140.601562 226.164062 141.828125 218.417969 143.738281 C 211.328125 145.5 205.683594 147.457031 188.871094 152.320312 C 186.253906 153.101562 183.578125 153.609375 180.855469 153.84375 C 177.125 154.152344 173.425781 153.941406 169.757812 153.214844 C 172.144531 154.65625 174.636719 155.890625 177.226562 156.921875 C 183.566406 159.417969 190.140625 160.621094 196.953125 160.535156 C 196.953125 160.535156 191.195312 158.945312 188.605469 157.15625 C 196.375 154.691406 207.210938 151.324219 220.582031 147.394531 C 220.582031 147.394531 236.1875 142.808594 250.351562 142.515625 C 253.269531 142.457031 255.90625 142.628906 258.828125 143.472656 C 261.320312 144.1875 262.804688 145.042969 268.441406 148.015625 C 271.480469 149.613281 274.078125 150.960938 276.058594 151.984375 Z M 276.058594 151.984375 " fill-opacity="1" fill-rule="nonzero"/></g><g clip-path="url(#035c757592)"><path fill="#910c00" d="M 355.535156 166.292969 C 354.332031 165.253906 353.082031 164.277344 351.785156 163.363281 C 342.835938 157.070312 333.5 155.199219 324.621094 154.195312 C 315.773438 153.195312 310.796875 153.453125 280.960938 154.566406 C 264.074219 155.203125 262.648438 155.238281 261.027344 155.265625 C 247.546875 155.507812 234.097656 155.011719 220.671875 153.773438 C 223.195312 154.28125 227.113281 155.019531 231.929688 155.71875 C 246.777344 157.878906 258.125 157.910156 283.078125 157.476562 C 296.480469 157.242188 307.9375 156.980469 316.800781 156.753906 C 316.171875 157.148438 315.578125 157.59375 315.023438 158.089844 C 314.066406 158.925781 312.980469 160.109375 312.421875 161.472656 C 313.1875 160.828125 317.945312 156.941406 324.796875 157.796875 C 331.683594 158.65625 335.351562 163.644531 335.925781 164.457031 C 335.941406 163.917969 335.890625 163.386719 335.777344 162.859375 C 335.53125 161.660156 334.984375 160.617188 334.136719 159.734375 C 336.464844 159.855469 338.769531 160.15625 341.050781 160.625 C 346.195312 161.699219 351.023438 163.589844 355.535156 166.292969 Z M 355.535156 166.292969 " fill-opacity="1" fill-rule="nonzero"/></g><path fill="#000000" d="M 225.375 165.003906 C 224.628906 162.804688 223.386719 160.933594 221.644531 159.398438 C 217.992188 156.222656 212.757812 155.472656 208.363281 156.980469 C 202.585938 158.972656 200.335938 164.148438 199.984375 164.996094 C 203.394531 160.300781 208.941406 157.75 214.488281 158.386719 C 221.140625 159.160156 224.792969 164.175781 225.375 165.003906 Z M 225.375 165.003906 " fill-opacity="1" fill-rule="nonzero"/><g fill="#880808" fill-opacity="1"><g transform="translate(9.786863, 227.127758)"><g><path d="M 7.46875 0 L 7.46875 -56 L 18.5625 -56 L 18.5625 -44.0625 L 16.53125 -42.78125 C 17.101562 -44.625 18.007812 -46.398438 19.25 -48.109375 C 20.5 -49.816406 22.03125 -51.328125 23.84375 -52.640625 C 25.65625 -53.953125 27.609375 -55 29.703125 -55.78125 C 31.804688 -56.570312 33.957031 -56.96875 36.15625 -56.96875 C 39.363281 -56.96875 42.175781 -56.429688 44.59375 -55.359375 C 47.007812 -54.296875 49 -52.695312 50.5625 -50.5625 C 52.125 -48.425781 53.257812 -45.757812 53.96875 -42.5625 L 52.265625 -42.984375 L 53.015625 -44.796875 C 53.796875 -46.429688 54.878906 -47.976562 56.265625 -49.4375 C 57.648438 -50.894531 59.234375 -52.191406 61.015625 -53.328125 C 62.796875 -54.472656 64.679688 -55.363281 66.671875 -56 C 68.660156 -56.644531 70.613281 -56.96875 72.53125 -56.96875 C 76.726562 -56.96875 80.195312 -56.113281 82.9375 -54.40625 C 85.675781 -52.695312 87.738281 -50.097656 89.125 -46.609375 C 90.507812 -43.128906 91.203125 -38.796875 91.203125 -33.609375 L 91.203125 0 L 80.109375 0 L 80.109375 -32.96875 C 80.109375 -37.726562 79.203125 -41.226562 77.390625 -43.46875 C 75.578125 -45.707031 72.75 -46.828125 68.90625 -46.828125 C 66.914062 -46.828125 65.050781 -46.488281 63.3125 -45.8125 C 61.570312 -45.132812 60.0625 -44.191406 58.78125 -42.984375 C 57.5 -41.773438 56.5 -40.367188 55.78125 -38.765625 C 55.070312 -37.171875 54.71875 -35.414062 54.71875 -33.5 L 54.71875 0 L 43.625 0 L 43.625 -33.171875 C 43.625 -37.578125 42.679688 -40.953125 40.796875 -43.296875 C 38.910156 -45.648438 36.191406 -46.828125 32.640625 -46.828125 C 30.648438 -46.828125 28.800781 -46.488281 27.09375 -45.8125 C 25.382812 -45.132812 23.890625 -44.207031 22.609375 -43.03125 C 21.328125 -41.863281 20.332031 -40.476562 19.625 -38.875 C 18.914062 -37.28125 18.5625 -35.554688 18.5625 -33.703125 L 18.5625 0 Z M 7.46875 0 "/></g></g></g><g fill="#880808" fill-opacity="1"><g transform="translate(104.184169, 227.127758)"><g><path d="M 37.125 1.0625 C 34.707031 1.0625 32.304688 0.671875 29.921875 -0.109375 C 27.535156 -0.890625 25.363281 -1.9375 23.40625 -3.25 C 21.457031 -4.570312 19.820312 -6.03125 18.5 -7.625 C 17.1875 -9.226562 16.316406 -10.847656 15.890625 -12.484375 L 18.671875 -13.96875 L 18.671875 -0.3125 L 7.6875 -0.3125 L 7.6875 -78.9375 L 18.671875 -78.9375 L 18.671875 -43.203125 L 16.953125 -44.15625 C 17.316406 -45.789062 18.101562 -47.375 19.3125 -48.90625 C 20.519531 -50.4375 22.066406 -51.820312 23.953125 -53.0625 C 25.835938 -54.3125 27.878906 -55.304688 30.078125 -56.046875 C 32.285156 -56.796875 34.523438 -57.171875 36.796875 -57.171875 C 41.847656 -57.171875 46.328125 -55.925781 50.234375 -53.4375 C 54.148438 -50.945312 57.242188 -47.515625 59.515625 -43.140625 C 61.796875 -38.773438 62.9375 -33.78125 62.9375 -28.15625 C 62.9375 -22.539062 61.816406 -17.523438 59.578125 -13.109375 C 57.335938 -8.703125 54.257812 -5.238281 50.34375 -2.71875 C 46.4375 -0.195312 42.03125 1.0625 37.125 1.0625 Z M 35.3125 -8.953125 C 38.582031 -8.953125 41.492188 -9.785156 44.046875 -11.453125 C 46.609375 -13.128906 48.632812 -15.40625 50.125 -18.28125 C 51.625 -21.164062 52.375 -24.457031 52.375 -28.15625 C 52.375 -31.789062 51.644531 -35.046875 50.1875 -37.921875 C 48.726562 -40.796875 46.71875 -43.050781 44.15625 -44.6875 C 41.601562 -46.332031 38.65625 -47.15625 35.3125 -47.15625 C 31.96875 -47.15625 29.015625 -46.332031 26.453125 -44.6875 C 23.890625 -43.050781 21.863281 -40.796875 20.375 -37.921875 C 18.882812 -35.046875 18.140625 -31.789062 18.140625 -28.15625 C 18.140625 -24.457031 18.882812 -21.164062 20.375 -18.28125 C 21.863281 -15.40625 23.890625 -13.128906 26.453125 -11.453125 C 29.015625 -9.785156 31.96875 -8.953125 35.3125 -8.953125 Z M 35.3125 -8.953125 "/></g></g></g><g fill="#000000" fill-opacity="1"><g transform="translate(167.544668, 227.127758)"><g><path d="M 7.6875 23.46875 L 7.6875 -56 L 18.78125 -56 L 18.78125 -43.203125 L 17.0625 -44.15625 C 17.488281 -46.289062 18.695312 -48.335938 20.6875 -50.296875 C 22.6875 -52.253906 25.125 -53.851562 28 -55.09375 C 30.882812 -56.34375 33.851562 -56.96875 36.90625 -56.96875 C 41.957031 -56.96875 46.4375 -55.722656 50.34375 -53.234375 C 54.257812 -50.742188 57.351562 -47.328125 59.625 -42.984375 C 61.90625 -38.648438 63.046875 -33.671875 63.046875 -28.046875 C 63.046875 -22.503906 61.925781 -17.546875 59.6875 -13.171875 C 57.445312 -8.796875 54.367188 -5.347656 50.453125 -2.828125 C 46.546875 -0.304688 42.140625 0.953125 37.234375 0.953125 C 33.960938 0.953125 30.796875 0.296875 27.734375 -1.015625 C 24.671875 -2.328125 22.070312 -4.015625 19.9375 -6.078125 C 17.8125 -8.140625 16.5 -10.273438 16 -12.484375 L 18.78125 -13.96875 L 18.78125 23.46875 Z M 35.421875 -9.171875 C 38.691406 -9.171875 41.601562 -9.988281 44.15625 -11.625 C 46.71875 -13.257812 48.742188 -15.5 50.234375 -18.34375 C 51.734375 -21.1875 52.484375 -24.421875 52.484375 -28.046875 C 52.484375 -31.679688 51.753906 -34.898438 50.296875 -37.703125 C 48.835938 -40.515625 46.828125 -42.738281 44.265625 -44.375 C 41.703125 -46.007812 38.753906 -46.828125 35.421875 -46.828125 C 32.078125 -46.828125 29.125 -46.023438 26.5625 -44.421875 C 24 -42.828125 21.96875 -40.609375 20.46875 -37.765625 C 18.976562 -34.921875 18.234375 -31.679688 18.234375 -28.046875 C 18.234375 -24.421875 18.976562 -21.1875 20.46875 -18.34375 C 21.96875 -15.5 24 -13.257812 26.5625 -11.625 C 29.125 -9.988281 32.078125 -9.171875 35.421875 -9.171875 Z M 35.421875 -9.171875 "/></g></g></g><g fill="#000000" fill-opacity="1"><g transform="translate(231.009386, 227.127758)"><g><path d="M 7.890625 0 L 7.890625 -78.9375 L 18.875 -78.9375 L 18.875 0 Z M 7.890625 0 "/></g></g></g><g fill="#000000" fill-opacity="1"><g transform="translate(253.408379, 227.127758)"><g><path d="M 27.3125 1.0625 C 23.320312 1.0625 19.851562 0.140625 16.90625 -1.703125 C 13.957031 -3.554688 11.679688 -6.148438 10.078125 -9.484375 C 8.484375 -12.828125 7.6875 -16.8125 7.6875 -21.4375 L 7.6875 -56 L 18.671875 -56 L 18.671875 -24.421875 C 18.671875 -19.515625 19.820312 -15.640625 22.125 -12.796875 C 24.4375 -9.953125 27.65625 -8.53125 31.78125 -8.53125 C 33.84375 -8.53125 35.726562 -8.867188 37.4375 -9.546875 C 39.144531 -10.222656 40.617188 -11.164062 41.859375 -12.375 C 43.109375 -13.582031 44.085938 -15.039062 44.796875 -16.75 C 45.515625 -18.457031 45.875 -20.304688 45.875 -22.296875 L 45.875 -56 L 56.859375 -56 L 56.859375 0 L 45.875 0 L 45.875 -11.734375 L 47.78125 -13.015625 C 46.9375 -10.378906 45.5 -7.992188 43.46875 -5.859375 C 41.4375 -3.734375 39.035156 -2.046875 36.265625 -0.796875 C 33.492188 0.441406 30.507812 1.0625 27.3125 1.0625 Z M 27.3125 1.0625 "/></g></g></g><g fill="#000000" fill-opacity="1"><g transform="translate(314.099827, 227.127758)"><g><path d="M 26.34375 1.0625 C 21.65625 1.0625 17.425781 0.242188 13.65625 -1.390625 C 9.882812 -3.023438 6.753906 -5.441406 4.265625 -8.640625 L 11.734375 -15.046875 C 13.867188 -12.554688 16.195312 -10.757812 18.71875 -9.65625 C 21.238281 -8.550781 24.101562 -8 27.3125 -8 C 28.59375 -8 29.78125 -8.15625 30.875 -8.46875 C 31.976562 -8.789062 32.9375 -9.269531 33.75 -9.90625 C 34.570312 -10.550781 35.195312 -11.316406 35.625 -12.203125 C 36.050781 -13.097656 36.265625 -14.078125 36.265625 -15.140625 C 36.265625 -16.992188 35.585938 -18.488281 34.234375 -19.625 C 33.523438 -20.125 32.40625 -20.675781 30.875 -21.28125 C 29.351562 -21.882812 27.382812 -22.503906 24.96875 -23.140625 C 20.84375 -24.210938 17.460938 -25.421875 14.828125 -26.765625 C 12.191406 -28.117188 10.164062 -29.648438 8.75 -31.359375 C 7.675781 -32.710938 6.890625 -34.1875 6.390625 -35.78125 C 5.898438 -37.382812 5.65625 -39.144531 5.65625 -41.0625 C 5.65625 -44.195312 6.539062 -46.972656 8.3125 -49.390625 C 10.09375 -51.804688 12.492188 -53.707031 15.515625 -55.09375 C 18.535156 -56.476562 21.929688 -57.171875 25.703125 -57.171875 C 28.335938 -57.171875 30.953125 -56.816406 33.546875 -56.109375 C 36.140625 -55.398438 38.539062 -54.367188 40.75 -53.015625 C 42.957031 -51.660156 44.804688 -50.0625 46.296875 -48.21875 L 40 -41.28125 C 38.644531 -42.632812 37.164062 -43.828125 35.5625 -44.859375 C 33.96875 -45.890625 32.351562 -46.6875 30.71875 -47.25 C 29.082031 -47.820312 27.585938 -48.109375 26.234375 -48.109375 C 24.742188 -48.109375 23.394531 -47.960938 22.1875 -47.671875 C 20.976562 -47.390625 19.960938 -46.960938 19.140625 -46.390625 C 18.328125 -45.828125 17.707031 -45.117188 17.28125 -44.265625 C 16.851562 -43.410156 16.640625 -42.453125 16.640625 -41.390625 C 16.710938 -40.460938 16.941406 -39.585938 17.328125 -38.765625 C 17.722656 -37.953125 18.273438 -37.257812 18.984375 -36.6875 C 19.765625 -36.125 20.9375 -35.519531 22.5 -34.875 C 24.070312 -34.238281 26.066406 -33.632812 28.484375 -33.0625 C 32.035156 -32.144531 34.96875 -31.132812 37.28125 -30.03125 C 39.59375 -28.925781 41.425781 -27.660156 42.78125 -26.234375 C 44.195312 -24.890625 45.1875 -23.328125 45.75 -21.546875 C 46.320312 -19.765625 46.609375 -17.773438 46.609375 -15.578125 C 46.609375 -12.378906 45.703125 -9.515625 43.890625 -6.984375 C 42.078125 -4.460938 39.640625 -2.488281 36.578125 -1.0625 C 33.523438 0.351562 30.113281 1.0625 26.34375 1.0625 Z M 26.34375 1.0625 "/></g></g></g><g transform="matrix(1, 0, 0, 1, 210, 230)"><g clip-path="url(#c1dbc9ffdd)"><g fill="#000000" fill-opacity="1"><g transform="translate(0.898512, 33.128873)"><g><path d="M 9.6875 0.328125 C 8.0625 0.328125 6.617188 -0.0625 5.359375 -0.84375 C 4.097656 -1.625 3.101562 -2.675781 2.375 -4 C 1.65625 -5.332031 1.296875 -6.835938 1.296875 -8.515625 C 1.296875 -10.179688 1.65625 -11.675781 2.375 -13 C 3.101562 -14.332031 4.097656 -15.378906 5.359375 -16.140625 C 6.617188 -16.910156 8.0625 -17.296875 9.6875 -17.296875 C 11.15625 -17.296875 12.484375 -17.007812 13.671875 -16.4375 C 14.859375 -15.863281 15.796875 -15.070312 16.484375 -14.0625 L 15.0625 -12.375 C 14.675781 -12.894531 14.203125 -13.351562 13.640625 -13.75 C 13.078125 -14.144531 12.46875 -14.457031 11.8125 -14.6875 C 11.164062 -14.914062 10.519531 -15.03125 9.875 -15.03125 C 8.6875 -15.03125 7.625 -14.75 6.6875 -14.1875 C 5.75 -13.625 5.007812 -12.847656 4.46875 -11.859375 C 3.925781 -10.878906 3.65625 -9.765625 3.65625 -8.515625 C 3.65625 -7.265625 3.929688 -6.140625 4.484375 -5.140625 C 5.035156 -4.148438 5.785156 -3.363281 6.734375 -2.78125 C 7.679688 -2.195312 8.738281 -1.90625 9.90625 -1.90625 C 10.582031 -1.90625 11.222656 -2.007812 11.828125 -2.21875 C 12.429688 -2.425781 13 -2.722656 13.53125 -3.109375 C 14.070312 -3.492188 14.582031 -3.96875 15.0625 -4.53125 L 16.453125 -2.8125 C 15.742188 -1.882812 14.773438 -1.128906 13.546875 -0.546875 C 12.328125 0.0351562 11.039062 0.328125 9.6875 0.328125 Z M 9.6875 0.328125 "/></g></g></g><g fill="#000000" fill-opacity="1"><g transform="translate(18.128013, 33.128873)"><g><path d="M 13.046875 0 L 13.046875 -11.34375 C 13.046875 -12.4375 12.65625 -13.316406 11.875 -13.984375 C 11.101562 -14.660156 10.082031 -15 8.8125 -15 C 7.75 -15 6.785156 -14.78125 5.921875 -14.34375 C 5.054688 -13.914062 4.289062 -13.269531 3.625 -12.40625 L 2.015625 -14.03125 C 2.984375 -15.125 4.046875 -15.941406 5.203125 -16.484375 C 6.359375 -17.023438 7.613281 -17.296875 8.96875 -17.296875 C 10.269531 -17.296875 11.394531 -17.078125 12.34375 -16.640625 C 13.289062 -16.210938 14.015625 -15.585938 14.515625 -14.765625 C 15.023438 -13.953125 15.28125 -12.960938 15.28125 -11.796875 L 15.28125 0 Z M 7.21875 0.328125 C 6.125 0.328125 5.144531 0.113281 4.28125 -0.3125 C 3.414062 -0.75 2.726562 -1.347656 2.21875 -2.109375 C 1.707031 -2.878906 1.453125 -3.785156 1.453125 -4.828125 C 1.453125 -5.671875 1.609375 -6.414062 1.921875 -7.0625 C 2.234375 -7.707031 2.691406 -8.242188 3.296875 -8.671875 C 3.898438 -9.109375 4.664062 -9.441406 5.59375 -9.671875 C 6.53125 -9.898438 7.59375 -10.015625 8.78125 -10.015625 L 14.15625 -10.015625 L 13.953125 -7.96875 L 8.453125 -7.96875 C 7.691406 -7.96875 7.023438 -7.898438 6.453125 -7.765625 C 5.890625 -7.640625 5.40625 -7.441406 5 -7.171875 C 4.601562 -6.898438 4.300781 -6.578125 4.09375 -6.203125 C 3.894531 -5.828125 3.796875 -5.378906 3.796875 -4.859375 C 3.796875 -4.253906 3.953125 -3.71875 4.265625 -3.25 C 4.578125 -2.789062 4.992188 -2.4375 5.515625 -2.1875 C 6.046875 -1.9375 6.644531 -1.8125 7.3125 -1.8125 C 8.195312 -1.8125 9.03125 -1.96875 9.8125 -2.28125 C 10.59375 -2.59375 11.289062 -3.023438 11.90625 -3.578125 C 12.519531 -4.128906 13.007812 -4.75 13.375 -5.4375 L 14.0625 -3.890625 C 13.582031 -3.066406 12.984375 -2.34375 12.265625 -1.71875 C 11.554688 -1.09375 10.773438 -0.59375 9.921875 -0.21875 C 9.066406 0.144531 8.164062 0.328125 7.21875 0.328125 Z M 7.21875 0.328125 "/></g></g></g><g fill="#000000" fill-opacity="1"><g transform="translate(35.454675, 33.128873)"><g><path d="M 2.296875 0 L 2.296875 -17 L 4.765625 -17 L 4.796875 -12.078125 L 4.5 -12.921875 C 4.71875 -13.703125 5.085938 -14.425781 5.609375 -15.09375 C 6.140625 -15.757812 6.785156 -16.289062 7.546875 -16.6875 C 8.304688 -17.09375 9.140625 -17.296875 10.046875 -17.296875 C 10.410156 -17.296875 10.753906 -17.269531 11.078125 -17.21875 C 11.398438 -17.164062 11.671875 -17.09375 11.890625 -17 L 11.234375 -14.3125 C 10.929688 -14.425781 10.625 -14.519531 10.3125 -14.59375 C 10 -14.664062 9.703125 -14.703125 9.421875 -14.703125 C 8.753906 -14.703125 8.132812 -14.566406 7.5625 -14.296875 C 6.988281 -14.023438 6.492188 -13.660156 6.078125 -13.203125 C 5.671875 -12.753906 5.351562 -12.242188 5.125 -11.671875 C 4.90625 -11.097656 4.796875 -10.507812 4.796875 -9.90625 L 4.796875 0 Z M 2.296875 0 "/></g></g></g><g fill="#000000" fill-opacity="1"><g transform="translate(47.502375, 33.128873)"><g><path d="M 8 0.328125 C 6.570312 0.328125 5.285156 0.0703125 4.140625 -0.4375 C 2.992188 -0.945312 2.066406 -1.675781 1.359375 -2.625 L 3.046875 -4.078125 C 3.671875 -3.304688 4.414062 -2.722656 5.28125 -2.328125 C 6.144531 -1.941406 7.128906 -1.75 8.234375 -1.75 C 8.785156 -1.75 9.273438 -1.816406 9.703125 -1.953125 C 10.140625 -2.097656 10.507812 -2.296875 10.8125 -2.546875 C 11.113281 -2.796875 11.332031 -3.085938 11.46875 -3.421875 C 11.613281 -3.753906 11.6875 -4.113281 11.6875 -4.5 C 11.6875 -5.21875 11.40625 -5.789062 10.84375 -6.21875 C 10.539062 -6.4375 10.125 -6.644531 9.59375 -6.84375 C 9.070312 -7.050781 8.429688 -7.253906 7.671875 -7.453125 C 6.503906 -7.734375 5.523438 -8.0625 4.734375 -8.4375 C 3.953125 -8.8125 3.332031 -9.25 2.875 -9.75 C 2.53125 -10.132812 2.269531 -10.554688 2.09375 -11.015625 C 1.925781 -11.484375 1.84375 -12 1.84375 -12.5625 C 1.84375 -13.488281 2.101562 -14.304688 2.625 -15.015625 C 3.144531 -15.734375 3.851562 -16.289062 4.75 -16.6875 C 5.644531 -17.09375 6.664062 -17.296875 7.8125 -17.296875 C 8.582031 -17.296875 9.347656 -17.1875 10.109375 -16.96875 C 10.878906 -16.757812 11.585938 -16.445312 12.234375 -16.03125 C 12.890625 -15.625 13.453125 -15.128906 13.921875 -14.546875 L 12.5 -12.984375 C 12.050781 -13.441406 11.570312 -13.835938 11.0625 -14.171875 C 10.550781 -14.503906 10.023438 -14.757812 9.484375 -14.9375 C 8.953125 -15.125 8.425781 -15.21875 7.90625 -15.21875 C 7.34375 -15.21875 6.832031 -15.160156 6.375 -15.046875 C 5.925781 -14.929688 5.546875 -14.757812 5.234375 -14.53125 C 4.921875 -14.300781 4.6875 -14.03125 4.53125 -13.71875 C 4.382812 -13.40625 4.3125 -13.039062 4.3125 -12.625 C 4.332031 -12.320312 4.40625 -12.023438 4.53125 -11.734375 C 4.664062 -11.441406 4.847656 -11.203125 5.078125 -11.015625 C 5.378906 -10.773438 5.8125 -10.539062 6.375 -10.3125 C 6.9375 -10.082031 7.617188 -9.882812 8.421875 -9.71875 C 9.453125 -9.457031 10.320312 -9.171875 11.03125 -8.859375 C 11.75 -8.546875 12.328125 -8.171875 12.765625 -7.734375 C 13.210938 -7.347656 13.535156 -6.894531 13.734375 -6.375 C 13.929688 -5.863281 14.03125 -5.269531 14.03125 -4.59375 C 14.03125 -3.625 13.769531 -2.765625 13.25 -2.015625 C 12.726562 -1.273438 12.015625 -0.695312 11.109375 -0.28125 C 10.203125 0.125 9.164062 0.328125 8 0.328125 Z M 8 0.328125 "/></g></g></g></g></g></svg>