<svg width="281" height="112" viewBox="0 0 281 112" fill="none" xmlns="http://www.w3.org/2000/svg">
<mask id="mask0_32_177" style="mask-type:luminance" maskUnits="userSpaceOnUse" x="126" y="6" width="93" height="18">
<path d="M126.259 6.60313H218.5V23.8H126.259V6.60313Z" fill="white"/>
</mask>
<g mask="url(#mask0_32_177)">
<path d="M211.347 16.5875L218.422 16.1906C214.094 14.0594 210.372 12.4656 207.581 11.3406C201.925 9.05938 199.019 7.90625 195.125 7.25938C193.566 7 190.575 6.60313 184.075 7.04688C177.709 7.48125 171.431 8.4625 165.234 9.99063C159.562 11.4 155.047 12.9656 141.597 16.8563C139.503 17.4813 137.362 17.8875 135.184 18.075C132.2 18.3219 129.241 18.1531 126.306 17.5719C128.216 18.725 130.209 19.7125 132.281 20.5375C137.353 22.5344 142.612 23.4969 148.062 23.4281C148.062 23.4281 143.456 22.1563 141.384 20.725C147.6 18.7531 156.269 16.0594 166.966 12.9156C166.966 12.9156 179.45 9.24688 190.781 9.0125C193.116 8.96563 195.225 9.10313 197.562 9.77813C199.556 10.35 200.744 11.0344 205.253 13.4125C207.684 14.6906 209.763 15.7688 211.347 16.5875Z" fill="#F0F0F0"/>
</g>
<mask id="mask1_32_177" style="mask-type:luminance" maskUnits="userSpaceOnUse" x="166" y="17" width="110" height="12">
<path d="M166.5 17.4H275.059V28.2031H166.5V17.4Z" fill="white"/>
</mask>
<g mask="url(#mask1_32_177)">
<path d="M274.928 28.0344C273.966 27.2031 272.966 26.4219 271.928 25.6906C264.769 20.6562 257.3 19.1594 250.197 18.3563C243.119 17.5563 239.137 17.7625 215.269 18.6531C201.759 19.1625 200.619 19.1906 199.322 19.2125C188.537 19.4062 177.778 19.0094 167.037 18.0188C169.056 18.425 172.191 19.0156 176.044 19.575C187.922 21.3031 197 21.3281 216.962 20.9813C227.684 20.7938 236.85 20.5844 243.941 20.4031C243.438 20.7188 242.962 21.075 242.519 21.4719C241.753 22.1406 240.884 23.0875 240.438 24.1781C241.05 23.6625 244.856 20.5531 250.338 21.2375C255.847 21.925 258.781 25.9156 259.241 26.5656C259.253 26.1344 259.213 25.7094 259.122 25.2875C258.925 24.3281 258.487 23.4938 257.809 22.7875C259.672 22.8844 261.516 23.125 263.341 23.5C267.456 24.3594 271.319 25.8719 274.928 28.0344Z" fill="#910C00"/>
</g>
<path d="M170.8 27.0031C170.203 25.2438 169.209 23.7469 167.816 22.5188C164.894 19.9781 160.706 19.3781 157.191 20.5844C152.569 22.1781 150.769 26.3188 150.488 26.9969C153.216 23.2406 157.653 21.2 162.091 21.7094C167.413 22.3281 170.334 26.3406 170.8 27.0031Z" fill="#F0F0F0"/>
<path d="M4.30449 82.638V37.838H13.1795V47.388L11.5545 48.413C12.0107 46.938 12.7357 45.5192 13.7295 44.1505C14.7295 42.7848 15.9545 41.5755 17.4045 40.5255C18.8545 39.4755 20.417 38.638 22.092 38.013C23.7732 37.3817 25.4951 37.063 27.2545 37.063C29.8201 37.063 32.0701 37.4942 34.0045 38.3505C35.9357 39.2005 37.5295 40.4817 38.7795 42.188C40.0295 43.8973 40.9357 46.0317 41.5045 48.588L40.142 48.2505L40.742 46.8005C41.367 45.4942 42.2326 44.2567 43.342 43.088C44.4482 41.9223 45.717 40.8848 47.142 39.9755C48.567 39.0598 50.0732 38.3473 51.667 37.838C53.2576 37.3223 54.8201 37.063 56.3545 37.063C59.7107 37.063 62.4857 37.7473 64.6795 39.113C66.8701 40.4817 68.5201 42.5598 69.6295 45.3505C70.7357 48.1348 71.292 51.6005 71.292 55.7505V82.638H62.417V56.263C62.417 52.4567 61.692 49.6567 60.242 47.863C58.792 46.0723 56.5295 45.1755 53.4545 45.1755C51.8607 45.1755 50.3701 45.4473 48.9795 45.988C47.5857 46.5317 46.3795 47.2848 45.3545 48.2505C44.3295 49.2192 43.5295 50.3442 42.9545 51.6255C42.3857 52.9005 42.1045 54.3067 42.1045 55.838V82.638H33.2295V56.1005C33.2295 52.5755 32.4732 49.8755 30.967 48.0005C29.4576 46.1192 27.2826 45.1755 24.442 45.1755C22.8482 45.1755 21.3701 45.4473 20.0045 45.988C18.6357 46.5317 17.442 47.2723 16.417 48.213C15.392 49.1473 14.5951 50.2567 14.0295 51.538C13.4607 52.813 13.1795 54.1942 13.1795 55.6755V82.638H4.30449Z" fill="#880808"/>
<path d="M103.547 83.488C101.613 83.488 99.6911 83.1755 97.7848 82.5505C95.8755 81.9255 94.138 81.088 92.5723 80.038C91.013 78.9817 89.7036 77.813 88.6473 76.538C87.5973 75.2567 86.9005 73.9599 86.5598 72.6505L88.7848 71.463V82.388H79.9973V19.488H88.7848V48.0755L87.4098 47.313C87.7005 46.0067 88.3286 44.738 89.2973 43.513C90.263 42.288 91.5005 41.1817 93.0098 40.188C94.5161 39.188 96.1505 38.3942 97.9098 37.8005C99.6755 37.2005 101.466 36.9005 103.285 36.9005C107.325 36.9005 110.91 37.8974 114.035 39.888C117.166 41.8817 119.641 44.6255 121.46 48.1255C123.285 51.6192 124.197 55.613 124.197 60.113C124.197 64.6067 123.3 68.6192 121.51 72.1505C119.716 75.6755 117.254 78.4474 114.122 80.463C110.997 82.4817 107.472 83.488 103.547 83.488ZM102.097 75.4755C104.713 75.4755 107.041 74.8099 109.085 73.4755C111.135 72.1349 112.754 70.313 113.947 68.013C115.147 65.7067 115.747 63.0724 115.747 60.113C115.747 57.2067 115.163 54.6005 113.997 52.3005C112.829 50.0005 111.222 48.1974 109.172 46.888C107.129 45.5724 104.772 44.913 102.097 44.913C99.4223 44.913 97.0598 45.5724 95.0098 46.888C92.9598 48.1974 91.338 50.0005 90.1473 52.3005C88.9536 54.6005 88.3598 57.2067 88.3598 60.113C88.3598 63.0724 88.9536 65.7067 90.1473 68.013C91.338 70.313 92.9598 72.1349 95.0098 73.4755C97.0598 74.8099 99.4223 75.4755 102.097 75.4755Z" fill="#880808"/>
<path d="M130.686 101.413V37.838H139.561V48.0755L138.186 47.313C138.526 45.6067 139.492 43.9692 141.086 42.4005C142.686 40.8348 144.636 39.5567 146.936 38.563C149.242 37.563 151.617 37.063 154.061 37.063C158.101 37.063 161.686 38.0598 164.811 40.0505C167.942 42.0442 170.417 44.7755 172.236 48.2505C174.061 51.7192 174.973 55.7005 174.973 60.2005C174.973 64.6348 174.076 68.6005 172.286 72.1005C170.492 75.6005 168.029 78.3598 164.898 80.3755C161.773 82.3942 158.248 83.4005 154.323 83.4005C151.704 83.4005 149.173 82.8755 146.723 81.8255C144.273 80.7755 142.192 79.4255 140.486 77.7755C138.786 76.1255 137.736 74.4192 137.336 72.6505L139.561 71.463V101.413H130.686ZM152.873 75.3005C155.489 75.3005 157.817 74.6473 159.861 73.338C161.911 72.0317 163.529 70.238 164.723 67.963C165.923 65.688 166.523 63.1005 166.523 60.2005C166.523 57.2942 165.939 54.7192 164.773 52.4755C163.604 50.2255 161.998 48.4473 159.948 47.138C157.898 45.8317 155.539 45.1755 152.873 45.1755C150.198 45.1755 147.836 45.8192 145.786 47.1005C143.736 48.3755 142.111 50.1505 140.911 52.4255C139.717 54.7005 139.123 57.2942 139.123 60.2005C139.123 63.1005 139.717 65.688 140.911 67.963C142.111 70.238 143.736 72.0317 145.786 73.338C147.836 74.6473 150.198 75.3005 152.873 75.3005Z" fill="#F0F0F0"/>
<path d="M181.62 82.638V19.488H190.407V82.638H181.62Z" fill="#F0F0F0"/>
<path d="M215.077 83.488C211.883 83.488 209.108 82.7505 206.752 81.2755C204.392 79.7942 202.57 77.7192 201.289 75.0505C200.014 72.3755 199.377 69.188 199.377 65.488V37.838H208.164V63.1005C208.164 67.0255 209.083 70.1255 210.927 72.4005C212.777 74.6755 215.352 75.813 218.652 75.813C220.302 75.813 221.808 75.5442 223.177 75.0005C224.542 74.4598 225.72 73.7067 226.714 72.738C227.714 71.7723 228.495 70.6067 229.064 69.238C229.639 67.8723 229.927 66.3942 229.927 64.8005V37.838H238.714V82.638H229.927V73.2505L231.452 72.2255C230.777 74.3348 229.627 76.2442 228.002 77.9505C226.377 79.6505 224.455 81.0005 222.239 82.0005C220.02 82.9911 217.633 83.488 215.077 83.488Z" fill="#F0F0F0"/>
<path d="M262.855 83.488C259.105 83.488 255.721 82.8317 252.705 81.5255C249.686 80.2192 247.183 78.2848 245.192 75.7255L251.167 70.6005C252.874 72.5942 254.736 74.0317 256.755 74.913C258.771 75.7973 261.061 76.238 263.63 76.238C264.655 76.238 265.605 76.113 266.48 75.863C267.361 75.6067 268.13 75.2223 268.78 74.713C269.436 74.1973 269.936 73.5848 270.28 72.8755C270.621 72.1598 270.792 71.3755 270.792 70.5255C270.792 69.0442 270.249 67.8473 269.167 66.938C268.599 66.538 267.705 66.0973 266.48 65.613C265.261 65.1317 263.686 64.6348 261.755 64.1255C258.455 63.2692 255.749 62.3005 253.642 61.2255C251.533 60.1442 249.911 58.9192 248.78 57.5505C247.921 56.4692 247.292 55.288 246.892 54.013C246.499 52.7317 246.305 51.3223 246.305 49.788C246.305 47.2817 247.011 45.0598 248.43 43.1255C249.855 41.1942 251.774 39.6723 254.192 38.563C256.608 37.4567 259.324 36.9005 262.342 36.9005C264.449 36.9005 266.542 37.1848 268.617 37.7505C270.692 38.3192 272.611 39.1442 274.38 40.2255C276.146 41.3098 277.624 42.588 278.817 44.063L273.78 49.613C272.696 48.5317 271.511 47.5755 270.23 46.7505C268.955 45.9255 267.661 45.288 266.355 44.838C265.046 44.3817 263.849 44.1505 262.767 44.1505C261.574 44.1505 260.496 44.2692 259.53 44.5005C258.561 44.7255 257.749 45.0692 257.092 45.5255C256.442 45.9755 255.946 46.5442 255.605 47.2255C255.261 47.9098 255.092 48.6755 255.092 49.5255C255.149 50.2692 255.333 50.9692 255.642 51.6255C255.958 52.2755 256.399 52.8317 256.967 53.288C257.592 53.738 258.53 54.2223 259.78 54.738C261.036 55.2473 262.633 55.7317 264.567 56.188C267.408 56.9223 269.755 57.7317 271.605 58.613C273.455 59.4973 274.921 60.5098 276.005 61.6505C277.136 62.7255 277.93 63.9755 278.38 65.4005C278.836 66.8255 279.067 68.4192 279.067 70.1755C279.067 72.7348 278.342 75.0255 276.892 77.0505C275.442 79.0692 273.492 80.6473 271.042 81.788C268.599 82.9192 265.871 83.488 262.855 83.488Z" fill="#F0F0F0"/>
<mask id="mask2_32_177" style="mask-type:luminance" maskUnits="userSpaceOnUse" x="158" y="79" width="52" height="34">
<path d="M209.7 79H158.5V112.6H209.7V79Z" fill="white"/>
</mask>
<g mask="url(#mask2_32_177)">
<path d="M166.969 105.766C165.669 105.766 164.513 105.453 163.506 104.828C162.497 104.203 161.7 103.362 161.119 102.303C160.544 101.237 160.256 100.034 160.256 98.6906C160.256 97.3594 160.544 96.1625 161.119 95.1031C161.7 94.0375 162.497 93.2 163.506 92.5906C164.513 91.975 165.669 91.6656 166.969 91.6656C168.144 91.6656 169.206 91.8969 170.156 92.3531C171.106 92.8125 171.856 93.4469 172.406 94.2531L171.269 95.6031C170.959 95.1875 170.581 94.8219 170.131 94.5031C169.681 94.1875 169.194 93.9375 168.669 93.7531C168.15 93.5719 167.634 93.4781 167.119 93.4781C166.169 93.4781 165.319 93.7031 164.569 94.1531C163.819 94.6031 163.225 95.225 162.794 96.0156C162.359 96.8 162.144 97.6906 162.144 98.6906C162.144 99.6906 162.363 100.591 162.806 101.391C163.247 102.184 163.847 102.812 164.606 103.278C165.363 103.747 166.209 103.978 167.144 103.978C167.684 103.978 168.197 103.897 168.681 103.728C169.163 103.562 169.619 103.325 170.044 103.016C170.475 102.709 170.884 102.328 171.269 101.878L172.381 103.253C171.813 103.997 171.038 104.6 170.056 105.066C169.081 105.531 168.05 105.766 166.969 105.766Z" fill="#F0F0F0"/>
<path d="M183.44 105.503V96.4281C183.44 95.5531 183.127 94.85 182.502 94.3156C181.884 93.775 181.068 93.5031 180.052 93.5031C179.202 93.5031 178.431 93.6781 177.74 94.0281C177.046 94.3719 176.434 94.8875 175.902 95.5781L174.615 94.2781C175.39 93.4031 176.24 92.75 177.165 92.3156C178.09 91.8844 179.093 91.6656 180.177 91.6656C181.218 91.6656 182.118 91.8406 182.877 92.1906C183.634 92.5344 184.215 93.0344 184.615 93.6906C185.021 94.3406 185.227 95.1344 185.227 96.0656V105.503H183.44ZM178.777 105.766C177.902 105.766 177.118 105.594 176.427 105.253C175.734 104.903 175.184 104.425 174.777 103.816C174.368 103.2 174.165 102.475 174.165 101.641C174.165 100.966 174.29 100.372 174.54 99.8531C174.79 99.3375 175.156 98.9094 175.64 98.5656C176.121 98.2156 176.734 97.95 177.477 97.7656C178.227 97.5844 179.077 97.4906 180.027 97.4906H184.327L184.165 99.1281H179.765C179.156 99.1281 178.621 99.1844 178.165 99.2906C177.715 99.3906 177.327 99.55 177.002 99.7656C176.684 99.9844 176.443 100.241 176.277 100.541C176.118 100.841 176.04 101.2 176.04 101.616C176.04 102.1 176.165 102.528 176.415 102.903C176.665 103.272 176.996 103.553 177.415 103.753C177.84 103.953 178.318 104.053 178.852 104.053C179.559 104.053 180.227 103.928 180.852 103.678C181.477 103.428 182.034 103.084 182.527 102.641C183.018 102.2 183.409 101.703 183.702 101.153L184.252 102.391C183.868 103.05 183.39 103.628 182.815 104.128C182.246 104.628 181.621 105.028 180.94 105.328C180.256 105.619 179.534 105.766 178.777 105.766Z" fill="#F0F0F0"/>
<path d="M188.701 105.503V91.9031H190.676L190.701 95.8406L190.464 95.1656C190.639 94.5406 190.933 93.9625 191.351 93.4281C191.776 92.8969 192.292 92.4719 192.901 92.1531C193.508 91.8281 194.176 91.6656 194.901 91.6656C195.192 91.6656 195.467 91.6875 195.726 91.7281C195.983 91.7719 196.201 91.8281 196.376 91.9031L195.851 94.0531C195.608 93.9625 195.364 93.8875 195.114 93.8281C194.864 93.7719 194.626 93.7406 194.401 93.7406C193.867 93.7406 193.37 93.85 192.914 94.0656C192.454 94.2844 192.058 94.575 191.726 94.9406C191.401 95.3 191.145 95.7094 190.964 96.1656C190.789 96.625 190.701 97.0969 190.701 97.5781V105.503H188.701Z" fill="#F0F0F0"/>
<path d="M202.902 105.766C201.758 105.766 200.73 105.559 199.814 105.153C198.896 104.747 198.155 104.162 197.589 103.403L198.939 102.241C199.439 102.859 200.033 103.325 200.727 103.641C201.418 103.95 202.205 104.103 203.089 104.103C203.53 104.103 203.921 104.05 204.264 103.941C204.614 103.825 204.908 103.666 205.152 103.466C205.393 103.266 205.568 103.034 205.677 102.766C205.793 102.5 205.852 102.212 205.852 101.903C205.852 101.328 205.627 100.872 205.177 100.528C204.933 100.353 204.602 100.187 204.177 100.028C203.758 99.8625 203.246 99.7 202.639 99.5406C201.705 99.3156 200.921 99.0531 200.289 98.7531C199.664 98.4531 199.168 98.1031 198.802 97.7031C198.527 97.3969 198.318 97.0594 198.177 96.6906C198.043 96.3156 197.977 95.9031 197.977 95.4531C197.977 94.7125 198.183 94.0594 198.602 93.4906C199.018 92.9156 199.583 92.4719 200.302 92.1531C201.018 91.8281 201.833 91.6656 202.752 91.6656C203.368 91.6656 203.98 91.7531 204.589 91.9281C205.205 92.0969 205.771 92.3469 206.289 92.6781C206.814 93.0031 207.264 93.4 207.639 93.8656L206.502 95.1156C206.143 94.75 205.758 94.4344 205.352 94.1656C204.943 93.9 204.521 93.6969 204.089 93.5531C203.664 93.4031 203.243 93.3281 202.827 93.3281C202.377 93.3281 201.968 93.375 201.602 93.4656C201.243 93.5594 200.939 93.6969 200.689 93.8781C200.439 94.0625 200.252 94.2781 200.127 94.5281C200.008 94.7781 199.952 95.0719 199.952 95.4031C199.968 95.6469 200.027 95.8844 200.127 96.1156C200.233 96.35 200.38 96.5406 200.564 96.6906C200.805 96.8844 201.152 97.0719 201.602 97.2531C202.052 97.4375 202.596 97.5969 203.239 97.7281C204.064 97.9375 204.758 98.1656 205.327 98.4156C205.902 98.6656 206.364 98.9656 206.714 99.3156C207.071 99.625 207.33 99.9875 207.489 100.403C207.646 100.812 207.727 101.287 207.727 101.828C207.727 102.603 207.518 103.291 207.102 103.891C206.683 104.484 206.114 104.947 205.389 105.278C204.664 105.603 203.833 105.766 202.902 105.766Z" fill="#F0F0F0"/>
</g>
</svg>